<?xml version="1.0" standalone="no"?>
<!DOCTYPE svg PUBLIC "-//W3C//DTD SVG 20010904//EN"
 "http://www.w3.org/TR/2001/REC-SVG-20010904/DTD/svg10.dtd">
<svg version="1.0" xmlns="http://www.w3.org/2000/svg"
 width="1024.000000pt" height="1024.000000pt" viewBox="0 0 1024.000000 1024.000000"
 preserveAspectRatio="xMidYMid meet">
<metadata>
Created by potrace 1.14, written by Peter Selinger 2001-2017
</metadata>
<g transform="translate(0.000000,1024.000000) scale(0.100000,-0.100000)"
fill="#000000" stroke="none">
<path d="M9197 9723 c-1 0 -65 -4 -142 -7 -134 -6 -166 -8 -315 -21 -113 -10
-249 -24 -290 -30 -14 -2 -50 -6 -80 -10 -30 -3 -66 -8 -80 -10 -14 -2 -45 -7
-70 -10 -25 -3 -83 -12 -130 -20 -47 -8 -103 -17 -125 -21 -22 -3 -58 -9 -80
-14 -22 -5 -56 -11 -75 -15 -19 -3 -46 -8 -60 -10 -14 -3 -34 -7 -45 -9 -135
-28 -468 -107 -630 -151 -785 -212 -1634 -552 -2470 -990 -185 -97 -466 -252
-582 -322 -40 -23 -74 -43 -77 -43 -5 0 -362 -218 -494 -302 -315 -199 -582
-379 -593 -399 -5 -10 -15 -23 -22 -31 -57 -58 -258 -374 -336 -528 -194 -380
-240 -698 -151 -1028 55 -203 200 -407 374 -527 42 -29 55 -44 59 -70 19 -114
174 -228 444 -324 107 -39 375 -116 438 -127 17 -3 46 -9 65 -14 19 -5 51 -12
70 -15 19 -3 42 -8 50 -10 8 -2 31 -7 50 -10 19 -3 53 -10 75 -15 22 -5 56
-11 75 -15 19 -3 46 -7 60 -10 30 -6 54 -9 180 -29 52 -8 111 -17 130 -21 19
-3 53 -8 75 -11 22 -3 85 -11 140 -19 55 -8 125 -17 155 -20 30 -3 66 -8 80
-10 25 -4 90 -12 169 -20 24 -2 60 -7 80 -9 20 -3 63 -8 96 -11 135 -13 239
-24 285 -30 19 -2 73 -7 120 -11 47 -3 92 -7 100 -9 8 -1 59 -6 114 -10 54 -3
106 -8 115 -10 9 -1 63 -6 121 -10 58 -4 119 -8 135 -10 17 -2 73 -7 126 -10
53 -3 110 -8 125 -10 40 -5 284 -19 312 -18 64 2 -6 -44 -248 -165 -96 -48
-200 -98 -230 -111 -534 -226 -766 -316 -1660 -642 -58 -21 -235 -83 -395
-139 -159 -55 -308 -107 -330 -115 -31 -11 -545 -161 -615 -179 -8 -3 -87 -25
-175 -51 -88 -26 -176 -51 -195 -57 -19 -5 -170 -50 -335 -100 -165 -50 -313
-94 -330 -98 -16 -4 -104 -31 -195 -60 -91 -28 -192 -60 -225 -70 -434 -132
-1125 -370 -1385 -477 -153 -63 -324 -152 -367 -190 -42 -37 -62 -86 -42 -99
6 -3 25 -8 42 -11 45 -6 78 -30 90 -64 10 -26 16 -29 54 -29 38 0 43 -3 43
-22 0 -12 -11 -33 -25 -48 -38 -40 -25 -65 33 -67 35 0 50 4 60 18 16 24 32
24 32 2 0 -30 38 -83 68 -94 15 -6 47 -14 72 -18 l45 -6 1 -70 c0 -61 -3 -73
-24 -93 -16 -16 -19 -24 -10 -27 7 -3 71 -25 142 -49 91 -30 130 -48 132 -60
3 -21 -23 -33 -64 -29 l-32 3 0 -50 0 -50 70 0 70 0 0 -45 c0 -41 -3 -45 -27
-51 -128 -29 -187 -63 -201 -117 -9 -34 -4 -80 7 -72 4 2 23 7 42 10 19 3 57
10 84 15 28 5 61 12 75 14 14 3 50 10 80 16 30 6 71 13 90 16 19 3 53 10 75
15 61 13 62 13 61 -38 l-1 -48 -130 -53 c-216 -88 -229 -98 -180 -155 l24 -28
418 107 c230 58 425 107 433 109 47 11 312 80 477 125 106 28 200 53 210 55
10 2 95 24 188 49 94 25 231 62 305 82 74 19 164 44 200 54 59 18 281 79 305
84 33 8 514 144 720 203 105 31 219 64 255 74 158 44 469 137 650 194 63 19
122 37 130 39 44 11 567 178 860 276 183 61 447 157 505 185 17 8 73 32 125
53 52 22 118 50 145 62 28 13 86 39 130 59 159 72 552 274 717 369 238 137
242 139 255 151 7 6 15 11 18 11 4 0 26 14 50 30 24 17 46 30 48 30 8 0 349
231 466 316 64 46 123 84 131 84 23 0 75 58 104 115 43 87 102 295 130 460 3
17 10 57 15 90 6 33 13 80 16 105 3 25 8 56 10 70 7 46 15 105 19 145 3 22 9
78 15 125 5 47 13 117 16 155 4 39 9 81 11 95 10 47 13 340 5 367 -5 16 -14
53 -21 83 -17 77 -81 206 -132 266 -24 28 -71 72 -106 98 -34 26 -73 64 -86
84 -30 48 -115 128 -192 179 -68 46 -275 153 -296 153 -8 0 -18 4 -24 9 -11
11 -203 79 -339 119 -187 56 -471 124 -705 168 -141 27 -449 79 -520 89 -25 3
-56 8 -70 10 -14 2 -43 7 -65 10 -22 3 -51 7 -65 10 -14 2 -47 7 -75 10 -27 3
-63 8 -80 10 -42 6 -281 35 -335 41 -25 2 -61 7 -80 9 -34 5 -67 8 -185 20
-33 4 -73 8 -90 10 -16 2 -59 6 -95 10 -36 3 -81 7 -100 10 -19 2 -71 7 -115
10 -44 4 -91 8 -105 10 -50 6 -226 19 -247 18 -21 -1 -23 4 -23 47 l0 47 188
83 c103 45 205 91 227 101 71 32 397 169 402 169 5 0 25 9 115 49 26 11 51 21
54 21 3 0 20 6 37 14 18 8 115 46 217 84 508 192 909 325 1310 433 80 21 159
43 175 49 30 9 347 85 395 94 14 2 69 14 124 25 145 31 341 66 426 76 25 3 72
10 105 15 33 5 87 12 120 15 33 3 76 8 95 11 49 7 98 11 225 19 61 4 126 9
145 10 19 2 168 4 330 5 315 3 353 8 436 56 63 36 127 103 167 175 36 65 83
178 91 221 2 13 9 41 15 63 6 22 13 58 17 80 3 22 9 58 13 80 9 53 0 301 -14
375 -2 9 -6 67 -10 130 -4 63 -8 122 -10 131 -2 9 7 59 21 110 13 52 24 95 24
97 0 1 -11 2 -25 2 -15 0 -38 13 -58 33 -101 101 -254 218 -360 275 -106 58
-151 66 -370 67 -109 0 -199 -1 -200 -2z m-8119 -8441 c3 -22 1 -23 -44 -20
-39 2 -48 7 -50 24 -3 18 2 20 44 19 41 0 47 -3 50 -23z"/>
</g>
</svg>
